<svg viewBox="0 0 1000 800" xmlns="http://www.w3.org/2000/svg">
  <!-- Background and Title -->
  <rect x="0" y="0" width="1000" height="800" fill="#f8f9fa" />
  <text x="500" y="40" font-family="Arial" font-size="24" text-anchor="middle" font-weight="bold">RetailPlus E-commerce - Network Architecture</text>
  
  <!-- Legend -->
  <rect x="780" y="60" width="200" height="160" fill="white" stroke="#333" stroke-width="1" />
  <text x="880" y="80" font-family="Arial" font-size="14" text-anchor="middle" font-weight="bold">Legend</text>
  
  <rect x="800" y="95" width="20" height="15" fill="#d1e7ff" stroke="#333" stroke-width="1" />
  <text x="830" y="107" font-family="Arial" font-size="12" text-anchor="start">Cloud Environment</text>
  
  <rect x="800" y="120" width="20" height="15" fill="#d4edda" stroke="#333" stroke-width="1" />
  <text x="830" y="132" font-family="Arial" font-size="12" text-anchor="start">Service Component</text>
  
  <rect x="800" y="145" width="20" height="15" fill="#ffe6cc" stroke="#333" stroke-width="1" />
  <text x="830" y="157" font-family="Arial" font-size="12" text-anchor="start">Security Control</text>
  
  <line x1="800" y1="170" x2="820" y2="170" stroke="#333" stroke-width="2" />
  <text x="830" y="173" font-family="Arial" font-size="12" text-anchor="start">Connection</text>
  
  <ellipse cx="810" cy="195" rx="10" ry="7" fill="#f8d7da" stroke="#333" stroke-width="1" />
  <text x="830" y="198" font-family="Arial" font-size="12" text-anchor="start">Vulnerability Point</text>
  
  <!-- AWS Cloud -->
  <rect x="50" y="100" width="400" height="440" fill="#d1e7ff" stroke="#333" stroke-width="2" rx="10" ry="10" />
  <text x="250" y="120" font-family="Arial" font-size="18" text-anchor="middle" font-weight="bold">AWS Cloud Environment</text>
  
  <!-- API Gateway & Security Layer -->
  <rect x="70" y="140" width="360" height="80" fill="#ffe6cc" stroke="#333" stroke-width="1" rx="5" ry="5" />
  <text x="250" y="155" font-family="Arial" font-size="14" text-anchor="middle">API Gateway Security Layer</text>
  
  <rect x="90" y="170" width="100" height="40" fill="#d4edda" stroke="#333" stroke-width="1" rx="5" ry="5" />
  <text x="140" y="190" font-family="Arial" font-size="12" text-anchor="middle">AWS API Gateway</text>
  <text x="140" y="205" font-family="Arial" font-size="10" text-anchor="middle">Rate Limiting</text>
  
  <rect x="200" y="170" width="100" height="40" fill="#d4edda" stroke="#333" stroke-width="1" rx="5" ry="5" />
  <text x="250" y="190" font-family="Arial" font-size="12" text-anchor="middle">WAF</text>
  <text x="250" y="205" font-family="Arial" font-size="10" text-anchor="middle">DDoS Protection</text>
  
  <rect x="310" y="170" width="100" height="40" fill="#d4edda" stroke="#333" stroke-width="1" rx="5" ry="5" />
  <text x="360" y="190" font-family="Arial" font-size="12" text-anchor="middle">Authentication</text>
  <text x="360" y="205" font-family="Arial" font-size="10" text-anchor="middle">JWT, OAuth 2.0</text>
  
  <!-- Microservice Cluster -->
  <rect x="70" y="230" width="360" height="180" fill="#d1e7ff" stroke="#333" stroke-width="1" rx="5" ry="5" />
  <text x="250" y="245" font-family="Arial" font-size="14" text-anchor="middle">Microservice Cluster (EKS)</text>
  
  <rect x="90" y="260" width="100" height="40" fill="#d4edda" stroke="#333" stroke-width="1" rx="5" ry="5" />
  <text x="140" y="280" font-family="Arial" font-size="12" text-anchor="middle">StoreFront</text>
  <text x="140" y="295" font-family="Arial" font-size="10" text-anchor="middle">Node.js/React</text>
  
  <rect x="200" y="260" width="100" height="40" fill="#d4edda" stroke="#333" stroke-width="1" rx="5" ry="5" />
  <text x="250" y="280" font-family="Arial" font-size="12" text-anchor="middle">PaymentHub</text>
  <text x="250" y="295" font-family="Arial" font-size="10" text-anchor="middle">Stripe/Adyen</text>
  
  <rect x="310" y="260" width="100" height="40" fill="#d4edda" stroke="#333" stroke-width="1" rx="5" ry="5" />
  <text x="360" y="280" font-family="Arial" font-size="12" text-anchor="middle">LogisticsLink</text>
  <text x="360" y="295" font-family="Arial" font-size="10" text-anchor="middle">Shipping APIs</text>
  
  <rect x="90" y="310" width="100" height="40" fill="#d4edda" stroke="#333" stroke-width="1" rx="5" ry="5" />
  <text x="140" y="330" font-family="Arial" font-size="12" text-anchor="middle">RetailInsights</text>
  <text x="140" y="345" font-family="Arial" font-size="10" text-anchor="middle">Analytics</text>
  
  <rect x="200" y="310" width="100" height="40" fill="#d4edda" stroke="#333" stroke-width="1" rx="5" ry="5" />
  <text x="250" y="330" font-family="Arial" font-size="12" text-anchor="middle">MarketConnect</text>
  <text x="250" y="345" font-family="Arial" font-size="10" text-anchor="middle">3rd Party APIs</text>
  
  <rect x="310" y="310" width="100" height="40" fill="#d4edda" stroke="#333" stroke-width="1" rx="5" ry="5" />
  <text x="360" y="330" font-family="Arial" font-size="12" text-anchor="middle">Inventory</text>
  <text x="360" y="345" font-family="Arial" font-size="10" text-anchor="middle">Product Mgmt</text>
  
  <rect x="140" y="360" width="220" height="40" fill="#ffe6cc" stroke="#333" stroke-width="1" rx="5" ry="5" />
  <text x="250" y="380" font-family="Arial" font-size="12" text-anchor="middle">Kubernetes Security Controls</text>
  <text x="250" y="395" font-family="Arial" font-size="10" text-anchor="middle">Container Security RBAC</text>
  
  <!-- Data Layer AWS -->
  <rect x="70" y="420" width="360" height="110" fill="#d1e7ff" stroke="#333" stroke-width="1" rx="5" ry="5" />
  <text x="250" y="435" font-family="Arial" font-size="14" text-anchor="middle">Data Layer</text>
  
  <rect x="90" y="450" width="100" height="70" fill="#d4edda" stroke="#333" stroke-width="1" rx="5" ry="5" />
  <text x="140" y="470" font-family="Arial" font-size="12" text-anchor="middle">PostgreSQL</text>
  <text x="140" y="485" font-family="Arial" font-size="10" text-anchor="middle">Amazon RDS</text>
  <text x="140" y="500" font-family="Arial" font-size="10" text-anchor="middle">Primary Data</text>
  
  <rect x="200" y="450" width="100" height="70" fill="#d4edda" stroke="#333" stroke-width="1" rx="5" ry="5" />
  <text x="250" y="470" font-family="Arial" font-size="12" text-anchor="middle">MongoDB</text>
  <text x="250" y="485" font-family="Arial" font-size="10" text-anchor="middle">Atlas</text>
  <text x="250" y="500" font-family="Arial" font-size="10" text-anchor="middle">Product Catalog</text>
  
  <rect x="310" y="450" width="100" height="70" fill="#d4edda" stroke="#333" stroke-width="1" rx="5" ry="5" />
  <text x="360" y="470" font-family="Arial" font-size="12" text-anchor="middle">Redis</text>
  <text x="360" y="485" font-family="Arial" font-size="10" text-anchor="middle">Caching</text>
  <text x="360" y="500" font-family="Arial" font-size="10" text-anchor="middle">Session Data</text>
  
  <!-- Google Cloud Platform -->
  <rect x="50" y="550" width="400" height="160" fill="#d1e7ff" stroke="#333" stroke-width="2" rx="10" ry="10" />
  <text x="250" y="570" font-family="Arial" font-size="18" text-anchor="middle" font-weight="bold">Google Cloud Platform</text>
  
  <rect x="70" y="590" width="175" height="100" fill="#d1e7ff" stroke="#333" stroke-width="1" rx="5" ry="5" />
  <text x="160" y="605" font-family="Arial" font-size="14" text-anchor="middle">Content Delivery</text>
  
  <rect x="90" y="625" width="135" height="50" fill="#d4edda" stroke="#333" stroke-width="1" rx="5" ry="5" />
  <text x="157" y="645" font-family="Arial" font-size="12" text-anchor="middle">Google Cloud CDN</text>
  <text x="157" y="665" font-family="Arial" font-size="10" text-anchor="middle">Static Content</text>
  
  <rect x="255" y="590" width="175" height="100" fill="#d1e7ff" stroke="#333" stroke-width="1" rx="5" ry="5" />
  <text x="342" y="605" font-family="Arial" font-size="14" text-anchor="middle">Analytics Services</text>
  
  <rect x="275" y="625" width="135" height="50" fill="#d4edda" stroke="#333" stroke-width="1" rx="5" ry="5" />
  <text x="342" y="645" font-family="Arial" font-size="12" text-anchor="middle">BigQuery</text>
  <text x="342" y="665" font-family="Arial" font-size="10" text-anchor="middle">Data Warehouse</text>
  
  <!-- Corporate Offices -->
  <rect x="500" y="100" width="260" height="280" fill="#f2f2f2" stroke="#333" stroke-width="2" rx="10" ry="10" />
  <text x="630" y="120" font-family="Arial" font-size="18" text-anchor="middle" font-weight="bold">Corporate Offices</text>
  
  <!-- Seattle HQ -->
  <rect x="520" y="140" width="220" height="110" fill="#e6e6e6" stroke="#333" stroke-width="1" rx="5" ry="5" />
  <text x="630" y="155" font-family="Arial" font-size="14" text-anchor="middle">Seattle HQ</text>
  
  <rect x="540" y="170" width="85" height="70" fill="#d4edda" stroke="#333" stroke-width="1" rx="5" ry="5" />
  <text x="582" y="190" font-family="Arial" font-size="12" text-anchor="middle">Development</text>
  <text x="582" y="205" font-family="Arial" font-size="12" text-anchor="middle">Team</text>
  <text x="582" y="220" font-family="Arial" font-size="10" text-anchor="middle">CI/CD Pipeline</text>
  
  <rect x="635" y="170" width="85" height="70" fill="#ffe6cc" stroke="#333" stroke-width="1" rx="5" ry="5" />
  <text x="678" y="190" font-family="Arial" font-size="12" text-anchor="middle">Security</text>
  <text x="678" y="205" font-family="Arial" font-size="12" text-anchor="middle">Team</text>
  <text x="678" y="220" font-family="Arial" font-size="10" text-anchor="middle">SOC</text>
  
  <!-- Austin Office -->
  <rect x="520" y="260" width="220" height="110" fill="#e6e6e6" stroke="#333" stroke-width="1" rx="5" ry="5" />
  <text x="630" y="275" font-family="Arial" font-size="14" text-anchor="middle">Austin Office</text>
  
  <rect x="540" y="290" width="85" height="70" fill="#d4edda" stroke="#333" stroke-width="1" rx="5" ry="5" />
  <text x="582" y="310" font-family="Arial" font-size="12" text-anchor="middle">Customer</text>
  <text x="582" y="325" font-family="Arial" font-size="12" text-anchor="middle">Success</text>
  <text x="582" y="340" font-family="Arial" font-size="10" text-anchor="middle">Merchant Support</text>
  
  <rect x="635" y="290" width="85" height="70" fill="#d4edda" stroke="#333" stroke-width="1" rx="5" ry="5" />
  <text x="678" y="310" font-family="Arial" font-size="12" text-anchor="middle">Sales</text>
  <text x="678" y="325" font-family="Arial" font-size="12" text-anchor="middle">Team</text>
  <text x="678" y="340" font-family="Arial" font-size="10" text-anchor="middle">Merchant Onboarding</text>
  
  <!-- Monitoring & Security -->
  <rect x="500" y="390" width="260" height="160" fill="#ffe6cc" stroke="#333" stroke-width="2" rx="10" ry="10" />
  <text x="630" y="410" font-family="Arial" font-size="18" text-anchor="middle" font-weight="bold">Monitoring Security</text>
  
  <rect x="520" y="430" width="70" height="50" fill="#d4edda" stroke="#333" stroke-width="1" rx="5" ry="5" />
  <text x="555" y="450" font-family="Arial" font-size="12" text-anchor="middle">Datadog</text>
  <text x="555" y="465" font-family="Arial" font-size="10" text-anchor="middle">APM</text>
  
  <rect x="600" y="430" width="70" height="50" fill="#d4edda" stroke="#333" stroke-width="1" rx="5" ry="5" />
  <text x="635" y="450" font-family="Arial" font-size="12" text-anchor="middle">New Relic</text>
  <text x="635" y="465" font-family="Arial" font-size="10" text-anchor="middle">Monitoring</text>
  
  <rect x="680" y="430" width="70" height="50" fill="#d4edda" stroke="#333" stroke-width="1" rx="5" ry="5" />
  <text x="715" y="450" font-family="Arial" font-size="12" text-anchor="middle">ELK Stack</text>
  <text x="715" y="465" font-family="Arial" font-size="10" text-anchor="middle">Logging</text>
  
  <rect x="520" y="490" width="110" height="50" fill="#d4edda" stroke="#333" stroke-width="1" rx="5" ry="5" />
  <text x="575" y="510" font-family="Arial" font-size="12" text-anchor="middle">AWS Security Hub</text>
  <text x="575" y="525" font-family="Arial" font-size="10" text-anchor="middle">GuardDuty</text>
  
  <rect x="640" y="490" width="110" height="50" fill="#d4edda" stroke="#333" stroke-width="1" rx="5" ry="5" />
  <text x="695" y="510" font-family="Arial" font-size="12" text-anchor="middle">Snyk</text>
  <text x="695" y="525" font-family="Arial" font-size="10" text-anchor="middle">OWASP ZAP</text>
  
  <!-- Identity & Access -->
  <rect x="500" y="560" width="260" height="150" fill="#ffe6cc" stroke="#333" stroke-width="2" rx="10" ry="10" />
  <text x="630" y="580" font-family="Arial" font-size="18" text-anchor="middle" font-weight="bold">Identity Access</text>
  
  <rect x="520" y="600" width="110" height="50" fill="#d4edda" stroke="#333" stroke-width="1" rx="5" ry="5" />
  <text x="575" y="620" font-family="Arial" font-size="12" text-anchor="middle">Okta</text>
  <text x="575" y="635" font-family="Arial" font-size="10" text-anchor="middle">Employee IAM</text>
  
  <rect x="640" y="600" width="110" height="50" fill="#d4edda" stroke="#333" stroke-width="1" rx="5" ry="5" />
  <text x="695" y="620" font-family="Arial" font-size="12" text-anchor="middle">Custom Auth</text>
  <text x="695" y="635" font-family="Arial" font-size="10" text-anchor="middle">Merchant/Customer</text>
  
  <rect x="520" y="660" width="230" height="40" fill="#d4edda" stroke="#333" stroke-width="1" rx="5" ry="5" />
  <text x="635" y="680" font-family="Arial" font-size="12" text-anchor="middle">MFA for Critical Functions</text>
  
  <!-- External Systems -->
  <rect x="780" y="230" width="180" height="190" fill="#f2f2f2" stroke="#333" stroke-width="1" rx="10" ry="10" />
  <text x="870" y="250" font-family="Arial" font-size="16" text-anchor="middle" font-weight="bold">External Systems</text>
  
  <rect x="800" y="270" width="140" height="40" fill="#d4edda" stroke="#333" stroke-width="1" rx="5" ry="5" />
  <text x="870" y="295" font-family="Arial" font-size="12" text-anchor="middle">Payment Processors</text>
  
  <rect x="800" y="320" width="140" height="40" fill="#d4edda" stroke="#333" stroke-width="1" rx="5" ry="5" />
  <text x="870" y="345" font-family="Arial" font-size="12" text-anchor="middle">Shipping Carriers</text>
  
  <rect x="800" y="370" width="140" height="40" fill="#d4edda" stroke="#333" stroke-width="1" rx="5" ry="5" />
  <text x="870" y="395" font-family="Arial" font-size="12" text-anchor="middle">Marketplaces</text>
  
  <!-- Users -->
  <rect x="780" y="430" width="180" height="280" fill="#f2f2f2" stroke="#333" stroke-width="1" rx="10" ry="10" />
  <text x="870" y="450" font-family="Arial" font-size="16" text-anchor="middle" font-weight="bold">Users</text>
  
  <rect x="800" y="470" width="140" height="50" fill="#d4edda" stroke="#333" stroke-width="1" rx="5" ry="5" />
  <text x="870" y="495" font-family="Arial" font-size="12" text-anchor="middle">Merchant Admins</text>
  <text x="870" y="510" font-family="Arial" font-size="10" text-anchor="middle">Store Management</text>
  
  <rect x="800" y="530" width="140" height="50" fill="#d4edda" stroke="#333" stroke-width="1" rx="5" ry="5" />
  <text x="870" y="555" font-family="Arial" font-size="12" text-anchor="middle">Customers</text>
  <text x="870" y="570" font-family="Arial" font-size="10" text-anchor="middle">Shopping Experience</text>
  
  <rect x="800" y="590" width="140" height="50" fill="#d4edda" stroke="#333" stroke-width="1" rx="5" ry="5" />
  <text x="870" y="615" font-family="Arial" font-size="12" text-anchor="middle">Mobile Apps</text>
  <text x="870" y="630" font-family="Arial" font-size="10" text-anchor="middle">React Native</text>
  
  <rect x="800" y="650" width="140" height="50" fill="#d4edda" stroke="#333" stroke-width="1" rx="5" ry="5" />
  <text x="870" y="675" font-family="Arial" font-size="12" text-anchor="middle">Web Browsers</text>
  <text x="870" y="690" font-family="Arial" font-size="10" text-anchor="middle">React/Next.js</text>
  
  <!-- Connection Lines -->
  <!-- API Gateway to Microservices -->
  <line x1="250" y1="220" x2="250" y2="230" stroke="#333" stroke-width="2" />
  
  <!-- Microservices to Data Layer -->
  <line x1="250" y1="410" x2="250" y2="420" stroke="#333" stroke-width="2" />
  
  <!-- AWS to GCP -->
  <line x1="250" y1="540" x2="250" y2="550" stroke="#333" stroke-width="2" />
  
  <!-- Seattle to Austin Office -->
  <line x1="630" y1="250" x2="630" y2="260" stroke="#333" stroke-width="2" />
  
  <!-- Corporate to AWS -->
  <line x1="500" y1="200" x2="450" y2="200" stroke="#333" stroke-width="2" />
  
  <!-- Corporate to GCP -->
  <line x1="500" y1="340" x2="460" y2="600" stroke="#333" stroke-width="2" />
  
  <!-- Corporate to Monitoring -->
  <line x1="630" y1="380" x2="630" y2="390" stroke="#333" stroke-width="2" />
  
  <!-- Monitoring to Identity -->
  <line x1="630" y1="550" x2="630" y2="560" stroke="#333" stroke-width="2" />
  
  <!-- AWS to External Systems -->
  <line x1="450" y1="320" x2="780" y2="320" stroke="#333" stroke-width="2" />
  
  <!-- AWS API Gateway to Users -->
  <line x1="430" y1="180" x2="800" y2="550" stroke="#333" stroke-width="2" />
  
  <!-- GCP CDN to Users -->
  <line x1="470" y1="650" x2="800" y2="650" stroke="#333" stroke-width="2" />
  
  <!-- External Systems to Microservices -->
  <line x1="780" y1="350" x2="430" y2="350" stroke="#333" stroke-width="2" />
  
  <!-- Vulnerability Points -->
  <ellipse cx="155" cy="210" rx="10" ry="7" fill="#f8d7da" stroke="#333" stroke-width="1" />
  <text x="155" y="225" font-family="Arial" font-size="10" text-anchor="middle">API Security</text>
  
  <ellipse cx="250" cy="350" rx="10" ry="7" fill="#f8d7da" stroke="#333" stroke-width="1" />
  <text x="250" y="335" font-family="Arial" font-size="10" text-anchor="middle">Outdated Dependencies</text>
  
  <ellipse cx="140" cy="550" rx="10" ry="7" fill="#f8d7da" stroke="#333" stroke-width="1" />
  <text x="140" y="565" font-family="Arial" font-size="10" text-anchor="middle">Technical Debt</text>
  
  <ellipse cx="800" cy="480" rx="10" ry="7" fill="#f8d7da" stroke="#333" stroke-width="1" />
  <text x="780" y="480" font-family="Arial" font-size="10" text-anchor="end">Inadequate RBAC</text>
  
  <ellipse cx="800" cy="600" rx="10" ry="7" fill="#f8d7da" stroke="#333" stroke-width="1" />
  <text x="780" y="600" font-family="Arial" font-size="10" text-anchor="end">Mobile App Security</text>
  
  <ellipse cx="360" cy="390" rx="10" ry="7" fill="#f8d7da" stroke="#333" stroke-width="1" />
  <text x="360" y="375" font-family="Arial" font-size="10" text-anchor="middle">Container Security Gaps</text>
  
  <!-- Key Compliance Requirements Box -->
  <rect x="20" y="730" width="960" height="60" fill="white" stroke="#333" stroke-width="1" rx="5" ry="5" />
  <text x="500" y="750" font-family="Arial" font-size="14" text-anchor="middle" font-weight="bold">Key Compliance Requirements</text>
  <text x="500" y="775" font-family="Arial" font-size="12" text-anchor="middle">PCI DSS Level 1 | GDPR | CCPA | SOC 2 Type II | ADA | ISO 27001 (in progress) | PIPEDA | LGPD | APP</text>
</svg>
